<svg width="36" height="36" viewBox="0 0 36 36" fill="none" xmlns="http://www.w3.org/2000/svg">
<path d="M10.4836 4.55625L9.75234 6.75H4.5C2.01797 6.75 0 8.76797 0 11.25V29.25C0 31.732 2.01797 33.75 4.5 33.75H31.5C33.982 33.75 36 31.732 36 29.25V11.25C36 8.76797 33.982 6.75 31.5 6.75H26.2477L25.5164 4.55625C25.0594 3.17813 23.7727 2.25 22.3172 2.25H13.6828C12.2273 2.25 10.9406 3.17813 10.4836 4.55625ZM18 13.5C19.7902 13.5 21.5071 14.2112 22.773 15.477C24.0388 16.7429 24.75 18.4598 24.75 20.25C24.75 22.0402 24.0388 23.7571 22.773 25.023C21.5071 26.2888 19.7902 27 18 27C16.2098 27 14.4929 26.2888 13.227 25.023C11.9612 23.7571 11.25 22.0402 11.25 20.25C11.25 18.4598 11.9612 16.7429 13.227 15.477C14.4929 14.2112 16.2098 13.5 18 13.5Z" fill="#FFFED7"/>
</svg>
